<?xml version="1.0" encoding="utf-8"?>
<!-- Generator: Adobe Illustrator 28.0.0, SVG Export Plug-In . SVG Version: 6.00 Build 0)  -->
<svg version="1.1" id="Layer_1" xmlns="http://www.w3.org/2000/svg" xmlns:xlink="http://www.w3.org/1999/xlink" x="0px" y="0px"
	 viewBox="0 0 600 600" style="enable-background:new 0 0 600 600;" xml:space="preserve">
<style type="text/css">
	.st0{fill:#FFFFFF;}
</style>
<g>
	<g>
		<polygon points="73.9,484 73.9,116 161.1,116 161.1,405 261.4,405 261.4,484 		"/>
		<path class="st0" d="M157.1,120v289h100.3v71H77.9V120H157.1 M165.1,112h-8H77.9h-8v8v360v8h8h179.5h8v-8v-71v-8h-8h-92.3V120V112
			L165.1,112z"/>
	</g>
	<g>
		<polygon points="338.6,484 232.5,116 325.3,116 380.2,353.3 435.1,116 527.4,116 421.3,484 		"/>
		<path class="st0" d="M522.1,120L418.3,480h-76.7L237.8,120h84.3l58.1,251l58.1-251H522.1 M532.7,112h-10.6h-83.8h-6.4l-1.4,6.2
			l-50.3,217.3l-50.3-217.3l-1.4-6.2h-6.4h-84.3h-10.6l2.9,10.2l103.8,360l1.7,5.8h6h76.7h6l1.7-5.8l103.8-360L532.7,112L532.7,112z
			"/>
	</g>
</g>
</svg>
